<svg xmlns="http://www.w3.org/2000/svg" xmlns:xlink="http://www.w3.org/1999/xlink" width="500" zoomAndPan="magnify" viewBox="0 0 375 374.999991" height="500" preserveAspectRatio="xMidYMid meet" version="1.0"><defs><clipPath id="5769a1933b"><path d="M 48.066406 48.066406 L 327 48.066406 L 327 327 L 48.066406 327 Z M 48.066406 48.066406 " clip-rule="nonzero"/></clipPath></defs><rect x="-37.5" width="450" fill="#ffffff" y="-37.499999" height="449.999989" fill-opacity="1"/><rect x="-37.5" width="450" fill="#000000" y="-37.499999" height="449.999989" fill-opacity="1"/><g clip-path="url(#5769a1933b)"><path fill="#8ffa58" d="M 326.890625 187.371094 L 219.8125 186.421875 L 326.589844 178.457031 L 326.574219 178.265625 L 219.6875 184.296875 L 325.695312 169.367188 L 325.675781 169.175781 L 219.40625 182.203125 L 324.21875 160.367188 L 324.183594 160.1875 L 219.003906 180.128906 L 322.160156 151.484375 L 322.105469 151.292969 L 218.441406 178.089844 L 319.503906 142.746094 L 319.453125 142.570312 L 217.773438 176.066406 L 316.304688 134.21875 L 316.234375 134.027344 L 216.964844 174.113281 L 312.542969 125.902344 L 312.472656 125.726562 L 216.015625 172.214844 L 308.253906 117.851562 L 308.164062 117.691406 L 214.960938 170.386719 L 303.433594 110.097656 L 303.328125 109.9375 L 213.796875 168.613281 L 298.125 102.675781 L 298.019531 102.535156 L 212.496094 166.941406 L 292.359375 95.625 L 292.21875 95.484375 L 211.089844 165.359375 L 286.117188 88.960938 L 285.976562 88.820312 L 209.597656 163.847656 L 279.46875 82.71875 L 279.328125 82.597656 L 208.015625 162.441406 L 272.417969 76.9375 L 272.261719 76.8125 L 206.308594 161.175781 L 265 71.609375 L 264.839844 71.503906 L 204.550781 159.996094 L 257.261719 66.789062 L 257.105469 66.703125 L 202.738281 158.921875 L 249.210938 62.484375 L 249.050781 62.394531 L 200.824219 157.992188 L 240.910156 58.703125 L 240.734375 58.632812 L 198.871094 157.199219 L 232.382812 55.484375 L 232.191406 55.433594 L 196.867188 156.496094 L 223.644531 52.847656 L 223.46875 52.796875 L 194.828125 155.933594 L 214.765625 50.753906 L 214.574219 50.71875 L 192.753906 155.546875 L 205.761719 49.277344 L 205.570312 49.242188 L 190.640625 155.265625 L 196.691406 48.363281 L 196.496094 48.363281 L 188.53125 155.125 L 187.566406 48.066406 L 187.371094 48.066406 L 186.421875 155.125 L 178.457031 48.363281 L 178.265625 48.363281 L 184.296875 155.265625 L 169.367188 49.242188 L 169.175781 49.277344 L 182.203125 155.53125 L 160.367188 50.71875 L 160.1875 50.753906 L 180.128906 155.933594 L 151.484375 52.796875 L 151.292969 52.847656 L 178.089844 156.515625 L 142.746094 55.433594 L 142.570312 55.484375 L 176.066406 157.183594 L 134.21875 58.632812 L 134.027344 58.71875 L 174.113281 157.972656 L 125.902344 62.394531 L 125.726562 62.484375 L 172.214844 158.921875 L 117.851562 66.703125 L 117.691406 66.789062 L 170.386719 159.996094 L 110.097656 71.503906 L 109.9375 71.609375 L 168.613281 161.15625 L 102.675781 76.8125 L 102.535156 76.9375 L 166.941406 162.441406 L 95.625 82.597656 L 95.484375 82.71875 L 165.359375 163.863281 L 88.960938 88.820312 L 88.820312 88.960938 L 163.847656 165.339844 L 82.71875 95.484375 L 82.597656 95.625 L 162.441406 166.941406 L 76.9375 102.535156 L 76.8125 102.675781 L 161.175781 168.628906 L 71.609375 109.9375 L 71.503906 110.097656 L 159.996094 170.386719 L 66.789062 117.691406 L 66.703125 117.851562 L 158.921875 172.214844 L 62.484375 125.726562 L 62.394531 125.902344 L 157.992188 174.113281 L 58.703125 134.042969 L 58.632812 134.21875 L 157.199219 176.085938 L 55.484375 142.570312 L 55.433594 142.746094 L 156.496094 178.070312 L 52.847656 151.292969 L 52.796875 151.484375 L 155.933594 180.128906 L 50.753906 160.1875 L 50.71875 160.367188 L 155.546875 182.203125 L 49.277344 169.191406 L 49.242188 169.367188 L 155.265625 184.296875 L 48.363281 178.265625 L 48.363281 178.457031 L 155.125 186.421875 L 48.066406 187.371094 L 48.066406 187.566406 L 155.125 188.53125 L 48.363281 196.496094 L 48.363281 196.691406 L 155.265625 190.640625 L 49.242188 205.570312 L 49.261719 205.761719 L 155.53125 192.753906 L 50.71875 214.574219 L 50.753906 214.765625 L 155.933594 194.828125 L 52.796875 223.46875 L 52.847656 223.644531 L 156.515625 196.867188 L 55.433594 232.191406 L 55.484375 232.382812 L 157.183594 198.871094 L 58.632812 240.734375 L 58.71875 240.910156 L 157.972656 200.839844 L 62.394531 249.050781 L 62.484375 249.226562 L 158.921875 202.738281 L 66.703125 257.105469 L 66.789062 257.261719 L 159.996094 204.566406 L 71.503906 264.839844 L 71.609375 265 L 161.15625 206.34375 L 76.8125 272.261719 L 76.9375 272.417969 L 162.441406 208.015625 L 82.597656 279.328125 L 82.71875 279.46875 L 163.863281 209.597656 L 88.820312 285.976562 L 88.960938 286.117188 L 165.339844 211.089844 L 95.484375 292.21875 L 95.625 292.359375 L 166.941406 212.496094 L 102.535156 298.019531 L 102.675781 298.125 L 168.628906 213.761719 L 109.9375 303.328125 L 110.097656 303.433594 L 170.386719 214.960938 L 117.691406 308.164062 L 117.851562 308.253906 L 172.214844 216.03125 L 125.726562 312.472656 L 125.902344 312.542969 L 174.113281 216.945312 L 134.042969 316.234375 L 134.21875 316.304688 L 176.085938 217.753906 L 142.570312 319.453125 L 142.746094 319.503906 L 178.070312 218.441406 L 151.292969 322.105469 L 151.484375 322.160156 L 180.128906 219.003906 L 160.1875 324.183594 L 160.367188 324.21875 L 182.203125 219.390625 L 169.191406 325.675781 L 169.367188 325.710938 L 184.296875 219.6875 L 178.265625 326.574219 L 178.457031 326.589844 L 186.421875 219.828125 L 187.371094 326.890625 L 187.566406 326.890625 L 188.53125 219.8125 L 196.496094 326.589844 L 196.691406 326.574219 L 190.640625 219.6875 L 205.570312 325.695312 L 205.761719 325.675781 L 192.753906 219.40625 L 214.574219 324.21875 L 214.765625 324.183594 L 194.828125 219.003906 L 223.46875 322.160156 L 223.644531 322.105469 L 196.867188 218.441406 L 232.191406 319.503906 L 232.382812 319.453125 L 198.871094 217.773438 L 240.734375 316.304688 L 240.910156 316.234375 L 200.839844 216.964844 L 249.050781 312.542969 L 249.226562 312.453125 L 202.738281 216.015625 L 257.105469 308.253906 L 257.261719 308.164062 L 204.566406 214.960938 L 264.839844 303.433594 L 265 303.328125 L 206.34375 213.796875 L 272.261719 298.125 L 272.417969 298.019531 L 208.015625 212.496094 L 279.328125 292.359375 L 279.46875 292.21875 L 209.597656 211.089844 L 285.976562 286.117188 L 286.117188 285.976562 L 211.089844 209.597656 L 292.21875 279.46875 L 292.359375 279.328125 L 212.496094 208.015625 L 298.019531 272.417969 L 298.125 272.261719 L 213.761719 206.308594 L 303.328125 265 L 303.433594 264.839844 L 214.960938 204.550781 L 308.164062 257.261719 L 308.253906 257.105469 L 216.03125 202.738281 L 312.472656 249.210938 L 312.542969 249.050781 L 216.945312 200.824219 L 316.234375 240.910156 L 316.304688 240.734375 L 217.753906 198.871094 L 319.453125 232.382812 L 319.523438 232.191406 L 218.441406 196.867188 L 322.105469 223.644531 L 322.160156 223.46875 L 219.003906 194.828125 L 324.183594 214.765625 L 324.21875 214.574219 L 219.390625 192.753906 L 325.675781 205.761719 L 325.695312 205.570312 L 219.6875 190.640625 L 326.574219 196.691406 L 326.589844 196.496094 L 219.828125 188.53125 L 326.890625 187.566406 Z M 326.890625 187.371094 " fill-opacity="1" fill-rule="evenodd"/></g></svg>