<svg xmlns="http://www.w3.org/2000/svg" xmlns:xlink="http://www.w3.org/1999/xlink" width="500" zoomAndPan="magnify" viewBox="0 0 375 374.999991" height="500" preserveAspectRatio="xMidYMid meet" version="1.0"><defs><g/></defs><g fill="#8ffa58" fill-opacity="1"><g transform="translate(103.466089, 207.245443)"><g><path d="M 29.6875 -18.59375 L 35.15625 -18.59375 L 35.15625 -0.109375 L 22.296875 -0.0625 C 16.335938 -0.0625 11.578125 -1.84375 8.015625 -5.40625 C 4.867188 -8.664062 3.144531 -13.046875 2.84375 -18.546875 L 8.59375 -18.546875 C 8.8125 -15.054688 10.175781 -11.90625 12.6875 -9.09375 C 13.96875 -7.769531 15.367188 -6.804688 16.890625 -6.203125 C 17.691406 -5.929688 18.570312 -5.710938 19.53125 -5.546875 C 20.5 -5.378906 21.550781 -5.296875 22.6875 -5.296875 L 29.6875 -5.34375 Z M 22.359375 -40.046875 L 35.15625 -39.984375 L 35.15625 -34.6875 L 22.8125 -34.8125 C 21.75 -34.8125 20.769531 -34.734375 19.875 -34.578125 C 18.988281 -34.429688 18.164062 -34.1875 17.40625 -33.84375 C 16.6875 -33.539062 15.960938 -33.171875 15.234375 -32.734375 C 14.515625 -32.296875 13.816406 -31.773438 13.140625 -31.171875 C 11.085938 -28.890625 9.722656 -26.5 9.046875 -24 L 3.078125 -24 C 3.710938 -28.320312 5.359375 -31.847656 8.015625 -34.578125 C 11.617188 -38.222656 16.398438 -40.046875 22.359375 -40.046875 Z M 22.359375 -40.046875 "/></g></g></g><g fill="#8ffa58" fill-opacity="1"><g transform="translate(138.608258, 207.245443)"><g><path d="M 2.84375 -39.875 L 8.25 -39.875 L 8.25 0.109375 L 2.84375 0.109375 Z M 13.703125 -4.4375 L 27.703125 -4.4375 L 27.703125 0.109375 L 13.703125 0.109375 Z M 13.703125 -4.4375 "/></g></g></g><g fill="#8ffa58" fill-opacity="1"><g transform="translate(166.301131, 207.245443)"><g><path d="M 8.46875 -14.734375 L 33.84375 -14.734375 L 39.46875 0 L 33.84375 0 L 30.203125 -10.234375 L 12.171875 -10.234375 L 8.53125 0 L 2.84375 0 Z M 18.09375 -39.921875 L 24.234375 -39.921875 L 32.078125 -19.34375 L 26.78125 -19.34375 L 21.15625 -34.640625 L 15.53125 -19.34375 L 10.234375 -19.34375 Z M 18.09375 -39.921875 "/></g></g></g><g fill="#8ffa58" fill-opacity="1"><g transform="translate(205.765022, 207.245443)"><g><path d="M 2.84375 -39.984375 L 15.078125 -39.984375 C 19.546875 -39.984375 22.921875 -38.957031 25.203125 -36.90625 C 27.515625 -34.9375 28.671875 -31.984375 28.671875 -28.046875 C 28.671875 -24.140625 27.515625 -21.160156 25.203125 -19.109375 C 24.023438 -18.085938 22.488281 -17.289062 20.59375 -16.71875 L 28.375 -0.0625 L 22.359375 -0.0625 L 14.90625 -16.09375 L 2.84375 -16.09375 Z M 8.25 -35.203125 L 8.25 -20.875 L 15.078125 -20.875 C 17.535156 -20.875 19.46875 -21.535156 20.875 -22.859375 C 22.238281 -24.222656 22.921875 -25.953125 22.921875 -28.046875 C 22.921875 -30.242188 22.238281 -31.984375 20.875 -33.265625 C 20.1875 -33.953125 19.359375 -34.445312 18.390625 -34.75 C 17.429688 -35.050781 16.328125 -35.203125 15.078125 -35.203125 Z M 2.84375 -10.640625 L 8.25 -10.640625 L 8.25 0 L 2.84375 0 Z M 2.84375 -10.640625 "/></g></g></g><g fill="#8ffa58" fill-opacity="1"><g transform="translate(234.367733, 207.245443)"><g><path d="M 2.84375 -39.984375 L 28.09375 -39.984375 L 28.09375 -35.4375 L 8.25 -35.4375 L 8.25 -23.609375 L 28.09375 -23.609375 L 28.09375 -19 L 8.25 -19.046875 L 8.25 -10.015625 L 2.84375 -10.015625 Z M 2.84375 -4.546875 L 28.09375 -4.546875 L 28.09375 0 L 2.84375 0 Z M 2.84375 -4.546875 "/></g></g></g></svg>