<svg width="25" height="24" viewBox="0 0 25 24" fill="none" xmlns="http://www.w3.org/2000/svg">
<path d="M22.75 22.75H2.75C2.34 22.75 2 22.41 2 22C2 21.59 2.34 21.25 2.75 21.25H22.75C23.16 21.25 23.5 21.59 23.5 22C23.5 22.41 23.16 22.75 22.75 22.75Z" fill="#E0E0E0"/>
<path d="M4.4502 22H2.9502L3.0002 9.96996C3.0002 9.11996 3.3902 8.32998 4.0602 7.80998L11.0602 2.35997C12.0502 1.58997 13.4402 1.58997 14.4402 2.35997L21.4402 7.79997C22.1002 8.31997 22.5002 9.12996 22.5002 9.96996V22H21.0002V9.97997C21.0002 9.59997 20.8202 9.22998 20.5202 8.98998L13.5202 3.54997C13.0702 3.19997 12.4402 3.19997 11.9802 3.54997L4.9802 8.99999C4.6802 9.22999 4.5002 9.59997 4.5002 9.97997L4.4502 22Z" fill="#E0E0E0"/>
<path d="M17.75 22.75H7.75C7.34 22.75 7 22.41 7 22V12.5C7 11.26 8.01 10.25 9.25 10.25H16.25C17.49 10.25 18.5 11.26 18.5 12.5V22C18.5 22.41 18.16 22.75 17.75 22.75ZM8.5 21.25H17V12.5C17 12.09 16.66 11.75 16.25 11.75H9.25C8.84 11.75 8.5 12.09 8.5 12.5V21.25Z" fill="#E0E0E0"/>
<path d="M10.75 18.5C10.34 18.5 10 18.16 10 17.75V16.25C10 15.84 10.34 15.5 10.75 15.5C11.16 15.5 11.5 15.84 11.5 16.25V17.75C11.5 18.16 11.16 18.5 10.75 18.5Z" fill="#E0E0E0"/>
</svg>
