<svg width="25" height="24" viewBox="0 0 25 24" fill="none" xmlns="http://www.w3.org/2000/svg">
<path d="M20.25 5.75H14.25C13.84 5.75 13.5 5.41 13.5 5C13.5 4.59 13.84 4.25 14.25 4.25H20.25C20.66 4.25 21 4.59 21 5C21 5.41 20.66 5.75 20.25 5.75Z" fill="#E0E0E0"/>
<path d="M17.25 8.75H14.25C13.84 8.75 13.5 8.41 13.5 8C13.5 7.59 13.84 7.25 14.25 7.25H17.25C17.66 7.25 18 7.59 18 8C18 8.41 17.66 8.75 17.25 8.75Z" fill="#E0E0E0"/>
<path d="M11.75 21.75C6.1 21.75 1.5 17.15 1.5 11.5C1.5 5.85 6.1 1.25 11.75 1.25C12.16 1.25 12.5 1.59 12.5 2C12.5 2.41 12.16 2.75 11.75 2.75C6.92 2.75 3 6.68 3 11.5C3 16.32 6.92 20.25 11.75 20.25C16.58 20.25 20.5 16.32 20.5 11.5C20.5 11.09 20.84 10.75 21.25 10.75C21.66 10.75 22 11.09 22 11.5C22 17.15 17.4 21.75 11.75 21.75Z" fill="#E0E0E0"/>
<path d="M22.25 22.7499C22.06 22.7499 21.87 22.6799 21.72 22.5299L19.72 20.5299C19.43 20.2399 19.43 19.7599 19.72 19.4699C20.01 19.1799 20.49 19.1799 20.78 19.4699L22.78 21.4699C23.07 21.7599 23.07 22.2399 22.78 22.5299C22.63 22.6799 22.44 22.7499 22.25 22.7499Z" fill="#E0E0E0"/>
</svg>
