<svg width="25" height="24" viewBox="0 0 25 24" fill="none" xmlns="http://www.w3.org/2000/svg">
<path d="M12.25 12.75C9.08 12.75 6.5 10.17 6.5 7C6.5 3.83 9.08 1.25 12.25 1.25C15.42 1.25 18 3.83 18 7C18 10.17 15.42 12.75 12.25 12.75ZM12.25 2.75C9.91 2.75 8 4.66 8 7C8 9.34 9.91 11.25 12.25 11.25C14.59 11.25 16.5 9.34 16.5 7C16.5 4.66 14.59 2.75 12.25 2.75Z" fill="#E0E0E0"/>
<path d="M20.8401 22.75C20.4301 22.75 20.0901 22.41 20.0901 22C20.0901 18.55 16.5702 15.75 12.2502 15.75C7.93015 15.75 4.41016 18.55 4.41016 22C4.41016 22.41 4.07016 22.75 3.66016 22.75C3.25016 22.75 2.91016 22.41 2.91016 22C2.91016 17.73 7.10015 14.25 12.2502 14.25C17.4002 14.25 21.5901 17.73 21.5901 22C21.5901 22.41 21.2501 22.75 20.8401 22.75Z" fill="#E0E0E0"/>
</svg>
