<svg width="24" height="25" viewBox="0 0 24 25" fill="none" xmlns="http://www.w3.org/2000/svg">
<path d="M9 22.1617H15C20 22.1617 22 20.1617 22 15.1617V9.16174C22 4.16174 20 2.16174 15 2.16174H9C4 2.16174 2 4.16174 2 9.16174V15.1617C2 20.1617 4 22.1617 9 22.1617Z" stroke="#8FFA58" stroke-width="1.5" stroke-linecap="round" stroke-linejoin="round"/>
<path d="M2 13.1617H5.76C6.52 13.1617 7.21 13.5917 7.55 14.2717L8.44 16.0617C9 17.1617 10 17.1617 10.24 17.1617H13.77C14.53 17.1617 15.22 16.7317 15.56 16.0517L16.45 14.2617C16.79 13.5817 17.48 13.1517 18.24 13.1517H21.98" stroke="#8FFA58" stroke-width="1.5" stroke-linecap="round" stroke-linejoin="round"/>
<path d="M10.3398 7.16174H13.6698" stroke="#8FFA58" stroke-width="1.5" stroke-linecap="round" stroke-linejoin="round"/>
<path d="M9.5 10.1617H14.5" stroke="#8FFA58" stroke-width="1.5" stroke-linecap="round" stroke-linejoin="round"/>
</svg>
