<svg width="24" height="25" viewBox="0 0 24 25" fill="none" xmlns="http://www.w3.org/2000/svg">
<path d="M15 22.9579H9C3.57 22.9579 1.25 20.6379 1.25 15.2079V9.20789C1.25 3.77789 3.57 1.45789 9 1.45789H14C14.41 1.45789 14.75 1.79789 14.75 2.20789C14.75 2.61789 14.41 2.95789 14 2.95789H9C4.39 2.95789 2.75 4.59789 2.75 9.20789V15.2079C2.75 19.8179 4.39 21.4579 9 21.4579H15C19.61 21.4579 21.25 19.8179 21.25 15.2079V10.2079C21.25 9.79789 21.59 9.45789 22 9.45789C22.41 9.45789 22.75 9.79789 22.75 10.2079V15.2079C22.75 20.6379 20.43 22.9579 15 22.9579Z" fill="#8FFA58"/>
<path d="M22 10.9579H18C14.58 10.9579 13.25 9.62787 13.25 6.20787V2.20787C13.25 1.90787 13.43 1.62787 13.71 1.51787C13.99 1.39787 14.31 1.46787 14.53 1.67787L22.53 9.67787C22.74 9.88787 22.81 10.2179 22.69 10.4979C22.57 10.7779 22.3 10.9579 22 10.9579ZM14.75 4.01787V6.20787C14.75 8.78787 15.42 9.45787 18 9.45787H20.19L14.75 4.01787Z" fill="#8FFA58"/>
<path d="M13 13.9579H7C6.59 13.9579 6.25 13.6179 6.25 13.2079C6.25 12.7979 6.59 12.4579 7 12.4579H13C13.41 12.4579 13.75 12.7979 13.75 13.2079C13.75 13.6179 13.41 13.9579 13 13.9579Z" fill="#8FFA58"/>
<path d="M11 17.9579H7C6.59 17.9579 6.25 17.6179 6.25 17.2079C6.25 16.7979 6.59 16.4579 7 16.4579H11C11.41 16.4579 11.75 16.7979 11.75 17.2079C11.75 17.6179 11.41 17.9579 11 17.9579Z" fill="#8FFA58"/>
</svg>
