<svg width="24" height="25" viewBox="0 0 24 25" fill="none" xmlns="http://www.w3.org/2000/svg">
<path d="M8 22.6664C7.72 22.6664 7.42998 22.5965 7.16998 22.4565C6.59998 22.1565 6.25 21.5564 6.25 20.9164V19.4965C3.23 19.1865 1.25 16.9664 1.25 13.7864V7.7865C1.25 4.3465 3.56 2.0365 7 2.0365H17C20.44 2.0365 22.75 4.3465 22.75 7.7865V13.7864C22.75 17.2264 20.44 19.5364 17 19.5364H13.23L8.96997 22.3765C8.67997 22.5665 8.34 22.6664 8 22.6664ZM7 3.52649C4.42 3.52649 2.75 5.19649 2.75 7.77649V13.7766C2.75 16.3566 4.42 18.0266 7 18.0266C7.41 18.0266 7.75 18.3666 7.75 18.7766V20.9066C7.75 21.0366 7.83 21.0965 7.88 21.1265C7.93001 21.1565 8.03001 21.1865 8.14001 21.1165L12.59 18.1566C12.71 18.0766 12.86 18.0266 13.01 18.0266H17.01C19.59 18.0266 21.26 16.3566 21.26 13.7766V7.77649C21.26 5.19649 19.59 3.52649 17.01 3.52649H7Z" fill="#8FFA58"/>
<path d="M11.9998 12.4565C11.5898 12.4565 11.2498 12.1165 11.2498 11.7065V11.4966C11.2498 10.3366 12.0998 9.76657 12.4198 9.54657C12.7898 9.29657 12.9098 9.12658 12.9098 8.86658C12.9098 8.36658 12.4998 7.95654 11.9998 7.95654C11.4998 7.95654 11.0898 8.36658 11.0898 8.86658C11.0898 9.27658 10.7498 9.61658 10.3398 9.61658C9.92984 9.61658 9.58984 9.27658 9.58984 8.86658C9.58984 7.53658 10.6698 6.45654 11.9998 6.45654C13.3298 6.45654 14.4098 7.53658 14.4098 8.86658C14.4098 10.0066 13.5698 10.5766 13.2598 10.7866C12.8698 11.0466 12.7498 11.2166 12.7498 11.4966V11.7065C12.7498 12.1265 12.4098 12.4565 11.9998 12.4565Z" fill="#8FFA58"/>
<path d="M12 14.9465C11.58 14.9465 11.25 14.6065 11.25 14.1965C11.25 13.7865 11.59 13.4465 12 13.4465C12.41 13.4465 12.75 13.7865 12.75 14.1965C12.75 14.6065 12.42 14.9465 12 14.9465Z" fill="#8FFA58"/>
</svg>
