<svg width="24" height="25" viewBox="0 0 24 25" fill="none" xmlns="http://www.w3.org/2000/svg">
<path d="M15 23.0503H9C4.59 23.0503 3.25 21.7103 3.25 17.3003V7.30029C3.25 2.89029 4.59 1.55029 9 1.55029H15C19.41 1.55029 20.75 2.89029 20.75 7.30029V17.3003C20.75 21.7103 19.41 23.0503 15 23.0503ZM9 3.05029C5.42 3.05029 4.75 3.73029 4.75 7.30029V17.3003C4.75 20.8703 5.42 21.5503 9 21.5503H15C18.58 21.5503 19.25 20.8703 19.25 17.3003V7.30029C19.25 3.73029 18.58 3.05029 15 3.05029H9Z" fill="#8FFA58"/>
<path d="M14 6.55029H10C9.59 6.55029 9.25 6.21029 9.25 5.80029C9.25 5.39029 9.59 5.05029 10 5.05029H14C14.41 5.05029 14.75 5.39029 14.75 5.80029C14.75 6.21029 14.41 6.55029 14 6.55029Z" fill="#8FFA58"/>
<path d="M11.9992 20.1603C10.7292 20.1603 9.69922 19.1303 9.69922 17.8603C9.69922 16.5903 10.7292 15.5603 11.9992 15.5603C13.2692 15.5603 14.2992 16.5903 14.2992 17.8603C14.2992 19.1303 13.2692 20.1603 11.9992 20.1603ZM11.9992 17.0503C11.5592 17.0503 11.1992 17.4103 11.1992 17.8503C11.1992 18.2903 11.5592 18.6503 11.9992 18.6503C12.4392 18.6503 12.7992 18.2903 12.7992 17.8503C12.7992 17.4103 12.4392 17.0503 11.9992 17.0503Z" fill="#8FFA58"/>
</svg>
