<svg width="24" height="25" viewBox="0 0 24 25" fill="none" xmlns="http://www.w3.org/2000/svg">
<path d="M6.28016 22.9118C4.15016 22.9118 2.41016 21.1718 2.41016 19.0418C2.41016 16.9118 4.15016 15.1718 6.28016 15.1718C8.41016 15.1718 10.1502 16.9118 10.1502 19.0418C10.1502 21.1718 8.41016 22.9118 6.28016 22.9118ZM6.28016 16.6718C4.97016 16.6718 3.91016 17.7318 3.91016 19.0418C3.91016 20.3518 4.97016 21.4118 6.28016 21.4118C7.59016 21.4118 8.65016 20.3518 8.65016 19.0418C8.65016 17.7318 7.59016 16.6718 6.28016 16.6718Z" fill="#8FFA58"/>
<path d="M9.40039 19.7918C8.99039 19.7918 8.65039 19.4518 8.65039 19.0418V6.46175C8.65039 4.88175 9.60039 3.64175 11.1204 3.23175L17.3604 1.53175C18.6304 1.18175 19.7004 1.31175 20.4504 1.89175C21.2104 2.47175 21.5904 3.44175 21.5904 4.77175V16.9718C21.5904 17.3818 21.2504 17.7218 20.8404 17.7218C20.4304 17.7218 20.0904 17.3818 20.0904 16.9718V4.76175C20.0904 4.18175 19.9904 3.42175 19.5404 3.08175C19.0504 2.70175 18.2104 2.85175 17.7504 2.98175L11.5104 4.68175C10.6404 4.92175 10.1504 5.57175 10.1504 6.47175V19.0518C10.1504 19.4518 9.81039 19.7918 9.40039 19.7918Z" fill="#8FFA58"/>
<path d="M17.7196 20.8318C15.5896 20.8318 13.8496 19.0918 13.8496 16.9618C13.8496 14.8318 15.5896 13.0918 17.7196 13.0918C19.8496 13.0918 21.5896 14.8318 21.5896 16.9618C21.5896 19.0918 19.8496 20.8318 17.7196 20.8318ZM17.7196 14.5918C16.4096 14.5918 15.3496 15.6518 15.3496 16.9618C15.3496 18.2718 16.4096 19.3318 17.7196 19.3318C19.0296 19.3318 20.0896 18.2718 20.0896 16.9618C20.0896 15.6518 19.0296 14.5918 17.7196 14.5918Z" fill="#8FFA58"/>
<path d="M9.3998 10.4318C9.0698 10.4318 8.7698 10.2118 8.6798 9.88177C8.5698 9.48177 8.7998 9.06177 9.1998 8.95177L20.6398 5.83177C21.0398 5.72177 21.4498 5.96177 21.5598 6.36177C21.6698 6.76177 21.4298 7.17177 21.0298 7.28177L9.5998 10.4018C9.5298 10.4218 9.4598 10.4318 9.3998 10.4318Z" fill="#8FFA58"/>
</svg>
