<svg width="24" height="25" viewBox="0 0 24 25" fill="none" xmlns="http://www.w3.org/2000/svg">
<path d="M18.0001 7.27548C17.9401 7.26548 17.8701 7.26548 17.8101 7.27548C16.4301 7.22548 15.3301 6.09548 15.3301 4.69548C15.3301 3.26548 16.4801 2.11548 17.9101 2.11548C19.3401 2.11548 20.4901 3.27548 20.4901 4.69548C20.4801 6.09548 19.3801 7.22548 18.0001 7.27548Z" stroke="#8FFA58" stroke-width="1.5" stroke-linecap="round" stroke-linejoin="round"/>
<path d="M16.9695 14.5555C18.3395 14.7855 19.8495 14.5455 20.9095 13.8355C22.3195 12.8955 22.3195 11.3555 20.9095 10.4155C19.8395 9.70552 18.3095 9.46551 16.9395 9.70551" stroke="#8FFA58" stroke-width="1.5" stroke-linecap="round" stroke-linejoin="round"/>
<path d="M5.96852 7.27548C6.02852 7.26548 6.09852 7.26548 6.15852 7.27548C7.53852 7.22548 8.63852 6.09548 8.63852 4.69548C8.63852 3.26548 7.48852 2.11548 6.05852 2.11548C4.62852 2.11548 3.47852 3.27548 3.47852 4.69548C3.48852 6.09548 4.58852 7.22548 5.96852 7.27548Z" stroke="#8FFA58" stroke-width="1.5" stroke-linecap="round" stroke-linejoin="round"/>
<path d="M6.99945 14.5555C5.62945 14.7855 4.11945 14.5455 3.05945 13.8355C1.64945 12.8955 1.64945 11.3555 3.05945 10.4155C4.12945 9.70552 5.65945 9.46551 7.02945 9.70551" stroke="#8FFA58" stroke-width="1.5" stroke-linecap="round" stroke-linejoin="round"/>
<path d="M12.0001 14.7455C11.9401 14.7355 11.8701 14.7355 11.8101 14.7455C10.4301 14.6955 9.33008 13.5655 9.33008 12.1655C9.33008 10.7355 10.4801 9.58545 11.9101 9.58545C13.3401 9.58545 14.4901 10.7455 14.4901 12.1655C14.4801 13.5655 13.3801 14.7055 12.0001 14.7455Z" stroke="#8FFA58" stroke-width="1.5" stroke-linecap="round" stroke-linejoin="round"/>
<path d="M9.0907 17.8955C7.6807 18.8355 7.6807 20.3755 9.0907 21.3155C10.6907 22.3855 13.3107 22.3855 14.9107 21.3155C16.3207 20.3755 16.3207 18.8355 14.9107 17.8955C13.3207 16.8355 10.6907 16.8355 9.0907 17.8955Z" stroke="#8FFA58" stroke-width="1.5" stroke-linecap="round" stroke-linejoin="round"/>
</svg>
