<svg width="24" height="25" viewBox="0 0 24 25" fill="none" xmlns="http://www.w3.org/2000/svg">
<path d="M11.9998 23.0044C11.7598 23.0044 11.5199 22.9745 11.2899 22.9045C6.09986 21.4745 2.33984 16.6244 2.33984 11.3644V6.97442C2.33984 5.85442 3.14985 4.64447 4.18985 4.21447L9.75986 1.93444C11.2099 1.34444 12.7998 1.34444 14.2398 1.93444L19.8098 4.21447C20.8498 4.64447 21.6599 5.85442 21.6599 6.97442V11.3644C21.6599 16.6144 17.8898 21.4645 12.7098 22.9045C12.4798 22.9745 12.2398 23.0044 11.9998 23.0044ZM11.9998 3.00445C11.4298 3.00445 10.8698 3.11447 10.3298 3.33447L4.75986 5.61444C4.27986 5.81444 3.83984 6.46443 3.83984 6.98443V11.3744C3.83984 15.9644 7.13985 20.2045 11.6898 21.4645C11.8898 21.5245 12.1098 21.5245 12.3098 21.4645C16.8598 20.2045 20.1599 15.9644 20.1599 11.3744V6.98443C20.1599 6.46443 19.7198 5.81444 19.2398 5.61444L13.6699 3.33447C13.1299 3.11447 12.5698 3.00445 11.9998 3.00445Z" fill="#8FFA58"/>
<path d="M12 13.5042C10.48 13.5042 9.25 12.2742 9.25 10.7542C9.25 9.23415 10.48 8.00415 12 8.00415C13.52 8.00415 14.75 9.23415 14.75 10.7542C14.75 12.2742 13.52 13.5042 12 13.5042ZM12 9.50415C11.31 9.50415 10.75 10.0642 10.75 10.7542C10.75 11.4442 11.31 12.0042 12 12.0042C12.69 12.0042 13.25 11.4442 13.25 10.7542C13.25 10.0642 12.69 9.50415 12 9.50415Z" fill="#8FFA58"/>
<path d="M12 16.5042C11.59 16.5042 11.25 16.1642 11.25 15.7542V12.7542C11.25 12.3442 11.59 12.0042 12 12.0042C12.41 12.0042 12.75 12.3442 12.75 12.7542V15.7542C12.75 16.1642 12.41 16.5042 12 16.5042Z" fill="#8FFA58"/>
</svg>
