<svg width="24" height="25" viewBox="0 0 24 25" fill="none" xmlns="http://www.w3.org/2000/svg">
<path d="M17 21.6428H7C3.35 21.6428 1.25 19.5428 1.25 15.8928V8.89282C1.25 5.24282 3.35 3.14282 7 3.14282H17C20.65 3.14282 22.75 5.24282 22.75 8.89282V15.8928C22.75 19.5428 20.65 21.6428 17 21.6428ZM7 4.64282C4.14 4.64282 2.75 6.03282 2.75 8.89282V15.8928C2.75 18.7528 4.14 20.1428 7 20.1428H17C19.86 20.1428 21.25 18.7528 21.25 15.8928V8.89282C21.25 6.03282 19.86 4.64282 17 4.64282H7Z" fill="#8FFA58"/>
<path d="M11.9988 13.2628C11.1588 13.2628 10.3088 13.0028 9.6588 12.4728L6.5288 9.97279C6.2088 9.71279 6.14881 9.24279 6.4088 8.92279C6.66881 8.60279 7.13881 8.5428 7.45881 8.8028L10.5888 11.3028C11.3488 11.9128 12.6388 11.9128 13.3988 11.3028L16.5288 8.8028C16.8488 8.5428 17.3288 8.59279 17.5788 8.92279C17.8388 9.24279 17.7888 9.72279 17.4588 9.97279L14.3288 12.4728C13.6888 13.0028 12.8388 13.2628 11.9988 13.2628Z" fill="#8FFA58"/>
</svg>
