<svg width="24" height="25" viewBox="0 0 24 25" fill="none" xmlns="http://www.w3.org/2000/svg">
<path d="M14.789 19.4893C14.679 19.4893 14.559 19.4594 14.459 19.4094C14.089 19.2194 13.939 18.7694 14.119 18.3994L16.259 14.1293C16.389 13.8793 16.649 13.7194 16.929 13.7194C17.209 13.7194 17.469 13.8793 17.599 14.1393L19.739 18.4094C19.929 18.7794 19.779 19.2293 19.399 19.4193C19.029 19.6093 18.579 19.4593 18.389 19.0793L16.929 16.1494L15.469 19.0793C15.329 19.3393 15.059 19.4893 14.789 19.4893Z" fill="#8FFA58"/>
<path d="M18.6801 18.7295H15.1602C14.7502 18.7295 14.4102 18.3895 14.4102 17.9795C14.4102 17.5695 14.7502 17.2295 15.1602 17.2295H18.6801C19.0901 17.2295 19.4301 17.5695 19.4301 17.9795C19.4301 18.3895 19.1001 18.7295 18.6801 18.7295Z" fill="#8FFA58"/>
<path d="M16.9198 22.8192C13.7098 22.8192 11.0898 20.2091 11.0898 16.9891C11.0898 13.7691 13.6998 11.1592 16.9198 11.1592C20.1298 11.1592 22.7498 13.7691 22.7498 16.9891C22.7498 20.2091 20.1398 22.8192 16.9198 22.8192ZM16.9198 12.6691C14.5298 12.6691 12.5898 14.6091 12.5898 16.9991C12.5898 19.3891 14.5298 21.3292 16.9198 21.3292C19.2998 21.3292 21.2498 19.3891 21.2498 16.9991C21.2498 14.6091 19.3098 12.6691 16.9198 12.6691Z" fill="#8FFA58"/>
<path d="M4.86 12.7696C3.75 12.7696 2.87 12.4596 2.25 11.8596C1.59 11.2196 1.25 10.2496 1.25 8.99957V5.07959C1.25 2.64959 2.59 1.30957 5.02 1.30957H8.94C10.19 1.30957 11.15 1.63957 11.8 2.30957C12.43 2.95957 12.74 3.89961 12.71 5.09961V8.99957C12.74 10.2196 12.43 11.1796 11.78 11.8296C11.13 12.4796 10.17 12.7796 8.92999 12.7596H5.03C4.96 12.7696 4.91 12.7696 4.86 12.7696ZM5.02 2.81958C3.41 2.81958 2.75 3.4796 2.75 5.0896V9.00958C2.75 9.83958 2.92999 10.4396 3.28999 10.7896C3.63999 11.1296 4.20001 11.2796 4.99001 11.2696H8.92999C9.76999 11.2896 10.35 11.1196 10.7 10.7696C11.05 10.4196 11.21 9.82959 11.19 9.01959V5.07959C11.21 4.27959 11.05 3.70956 10.71 3.35956C10.36 2.99956 9.75999 2.81958 8.92999 2.81958H5.02Z" fill="#8FFA58"/>
<path d="M8.99945 6.66895H4.93945C4.52945 6.66895 4.18945 6.32895 4.18945 5.91895C4.18945 5.50895 4.52945 5.16895 4.93945 5.16895H8.99945C9.40945 5.16895 9.74945 5.50895 9.74945 5.91895C9.74945 6.32895 9.41945 6.66895 8.99945 6.66895Z" fill="#8FFA58"/>
<path d="M6.98047 6.66925C6.57047 6.66925 6.23047 6.32925 6.23047 5.91925V5.23926C6.23047 4.82926 6.57047 4.48926 6.98047 4.48926C7.39047 4.48926 7.73047 4.82926 7.73047 5.23926V5.91925C7.73047 6.32925 7.39047 6.66925 6.98047 6.66925Z" fill="#8FFA58"/>
<path d="M4.93945 9.82928C4.52945 9.82928 4.18945 9.48928 4.18945 9.07928C4.18945 8.66928 4.52945 8.32928 4.93945 8.32928C6.20945 8.32928 7.23946 7.2493 7.23946 5.9093C7.23946 5.4993 7.57946 5.1593 7.98946 5.1593C8.39946 5.1593 8.73946 5.4993 8.73946 5.9093C8.73946 8.0693 7.03945 9.82928 4.93945 9.82928Z" fill="#8FFA58"/>
<path d="M9.01042 9.82928C8.08042 9.82928 7.19043 9.35929 6.56043 8.52929C6.31043 8.19929 6.38043 7.72924 6.71043 7.47924C7.04043 7.22924 7.51042 7.29927 7.76042 7.62927C8.10042 8.08927 8.55042 8.33929 9.01042 8.33929C9.42042 8.33929 9.76042 8.67929 9.76042 9.08929C9.76042 9.49929 9.42042 9.82928 9.01042 9.82928Z" fill="#8FFA58"/>
<path d="M9 22.8193C4.73 22.8193 1.25 19.3393 1.25 15.0693C1.25 14.6593 1.59 14.3193 2 14.3193C2.41 14.3193 2.75 14.6593 2.75 15.0693C2.75 18.0293 4.81 20.5094 7.58 21.1594L7.31 20.7094C7.1 20.3494 7.21001 19.8893 7.57001 19.6793C7.92001 19.4693 8.39001 19.5793 8.60001 19.9393L9.64999 21.6893C9.78999 21.9193 9.79 22.2093 9.66 22.4393C9.52 22.6693 9.27 22.8193 9 22.8193Z" fill="#8FFA58"/>
<path d="M22.0004 9.81934C21.5904 9.81934 21.2504 9.47934 21.2504 9.06934C21.2504 6.10934 19.1904 3.62931 16.4204 2.97931L16.6904 3.42932C16.9004 3.78932 16.7904 4.24935 16.4304 4.45935C16.0804 4.66935 15.6104 4.55934 15.4004 4.19934L14.3504 2.44934C14.2104 2.21934 14.2104 1.92934 14.3404 1.69934C14.4704 1.45934 14.7204 1.31934 14.9904 1.31934C19.2604 1.31934 22.7404 4.79934 22.7404 9.06934C22.7504 9.47934 22.4104 9.81934 22.0004 9.81934Z" fill="#8FFA58"/>
</svg>
