<svg width="24" height="25" viewBox="0 0 24 25" fill="none" xmlns="http://www.w3.org/2000/svg">
<path d="M12 12.7731C8.83 12.7731 6.25 10.1931 6.25 7.02307C6.25 3.85307 8.83 1.27307 12 1.27307C15.17 1.27307 17.75 3.85307 17.75 7.02307C17.75 10.1931 15.17 12.7731 12 12.7731ZM12 2.77307C9.66 2.77307 7.75 4.68307 7.75 7.02307C7.75 9.36307 9.66 11.2731 12 11.2731C14.34 11.2731 16.25 9.36307 16.25 7.02307C16.25 4.68307 14.34 2.77307 12 2.77307Z" fill="#8FFA58"/>
<path d="M20.5901 22.7731C20.1801 22.7731 19.8401 22.4331 19.8401 22.0231C19.8401 18.5731 16.3202 15.7731 12.0002 15.7731C7.68015 15.7731 4.16016 18.5731 4.16016 22.0231C4.16016 22.4331 3.82016 22.7731 3.41016 22.7731C3.00016 22.7731 2.66016 22.4331 2.66016 22.0231C2.66016 17.7531 6.85015 14.2731 12.0002 14.2731C17.1502 14.2731 21.3401 17.7531 21.3401 22.0231C21.3401 22.4331 21.0001 22.7731 20.5901 22.7731Z" fill="#8FFA58"/>
</svg>
