<svg width="24" height="25" viewBox="0 0 24 25" fill="none" xmlns="http://www.w3.org/2000/svg">
<path fill-rule="evenodd" clip-rule="evenodd" d="M19.1001 19.66C19.6901 18.76 19.9101 18.3 20.3601 17.29C17.0401 16.03 16.5101 11.3 19.7901 9.48999C18.7901 8.22999 17.3801 7.5 16.0501 7.5C15.0901 7.5 14.4301 7.75001 13.8401 7.98001C13.3401 8.17001 12.8901 8.34 12.3301 8.34C11.7301 8.34 11.2001 8.15001 10.6401 7.95001C10.0301 7.73001 9.39006 7.5 8.59006 7.5C7.10006 7.5 5.51007 8.41 4.50007 9.97C3.08007 12.17 3.33007 16.29 5.62007 19.81C6.44007 21.07 7.54007 22.48 8.97007 22.5C9.57007 22.51 9.96007 22.33 10.3901 22.14C10.8801 21.92 11.4101 21.68 12.3401 21.68C13.2701 21.67 13.7901 21.92 14.2801 22.14C14.7001 22.33 15.0801 22.51 15.6701 22.5C17.1201 22.48 18.2801 20.92 19.1001 19.66Z" fill="white"/>
<path fill-rule="evenodd" clip-rule="evenodd" d="M15.8399 2.5C15.9999 3.6 15.5499 4.69001 14.9599 5.45001C14.3299 6.27001 13.2299 6.91 12.1699 6.87C11.9799 5.81 12.4699 4.71999 13.0699 3.98999C13.7399 3.18999 14.8699 2.57 15.8399 2.5Z" fill="white"/>
</svg>
