<svg width="12" height="12" viewBox="0 0 12 12" fill="none" xmlns="http://www.w3.org/2000/svg">
<path d="M9.00033 4.15495C8.82033 3.94995 8.63533 3.74495 8.44033 3.54995L8.29533 3.41495L8.36533 3.35495C8.60984 3.14506 8.78409 2.86521 8.86456 2.55317C8.94503 2.24113 8.92784 1.91192 8.81533 1.60995C8.65228 1.26944 8.39412 0.983418 8.07204 0.786443C7.74996 0.589468 7.37773 0.489964 7.00033 0.499952V1.49995C7.17823 1.49748 7.35356 1.54251 7.50825 1.6304C7.66294 1.71829 7.79139 1.84586 7.88033 1.99995C7.96533 2.19995 7.88033 2.41995 7.64533 2.65495C7.61033 2.69495 7.57033 2.71995 7.53533 2.75495C6.03533 1.54995 4.39033 0.869952 3.58533 1.67495C3.501 1.76115 3.43171 1.86086 3.38033 1.96995V2.01995L3.29033 2.28495L1.08533 8.83495C1.00192 9.08178 0.978525 9.34493 1.01707 9.6026C1.05562 9.86028 1.15501 10.1051 1.307 10.3167C1.45899 10.5283 1.65921 10.7006 1.89108 10.8195C2.12295 10.9383 2.37979 11.0002 2.64033 11C2.81044 10.9983 2.97922 10.9696 3.14033 10.915L10.0003 8.63995C10.0846 8.60857 10.1589 8.55502 10.2153 8.48495L10.3203 8.39495C11.0353 7.67495 10.5753 6.28995 9.61533 4.94495C10.1854 4.61228 10.8417 4.45733 11.5003 4.49995V3.49995C10.619 3.45146 9.74465 3.68054 9.00033 4.15495ZM2.85033 9.96495C2.73683 10.0025 2.61513 10.0078 2.4988 9.98021C2.38248 9.95262 2.27611 9.89324 2.19158 9.8087C2.10704 9.72417 2.04766 9.6178 2.02007 9.50148C1.99248 9.38515 1.99776 9.26345 2.03533 9.14995L2.71533 7.09995C3.20062 8.0254 3.94631 8.78847 4.86033 9.29495L2.85033 9.96495ZM6.35033 8.79995C5.59469 8.59983 4.90537 8.20355 4.35219 7.65126C3.79902 7.09896 3.40164 6.41027 3.20033 5.65495L3.70033 4.15495L3.73033 4.19995C3.78533 4.30995 3.85533 4.42495 3.92533 4.53995C3.99533 4.65495 4.00533 4.68495 4.05533 4.75995C4.10533 4.83495 4.22033 4.99995 4.31033 5.12495C4.40033 5.24995 4.40533 5.26495 4.46033 5.33495C4.51533 5.40495 4.67533 5.60995 4.79033 5.74495L4.93533 5.91995C5.10533 6.11495 5.28533 6.30495 5.47533 6.49995C5.66533 6.69495 5.81533 6.81995 5.97533 6.99995L6.14033 7.13995L6.53033 7.45495L6.71533 7.59495C6.85533 7.69495 6.99033 7.79495 7.13033 7.88495L7.28533 7.98495C7.46533 8.09495 7.64533 8.19995 7.82033 8.28995H7.84533L6.35033 8.79995ZM9.60533 7.68495H9.57533C9.23033 7.87495 7.79533 7.39995 6.18033 5.77995C6.01033 5.60995 5.85033 5.44495 5.70533 5.27995L5.56033 5.10495L5.29533 4.78495L5.15033 4.58495C5.08533 4.48995 5.01533 4.39995 4.95533 4.30995L4.82533 4.09995L4.68033 3.86495C4.64033 3.79495 4.61033 3.72995 4.57533 3.66495C4.54033 3.59995 4.50033 3.53495 4.47033 3.46495C4.44351 3.40637 4.42014 3.34626 4.40033 3.28495C4.37533 3.21995 4.34533 3.15495 4.32533 3.09495C4.30533 3.03495 4.30033 2.99995 4.28533 2.93995C4.27033 2.87995 4.26033 2.82995 4.25033 2.77995C4.24783 2.73665 4.24783 2.69325 4.25033 2.64995C4.24551 2.6101 4.24551 2.56981 4.25033 2.52995L4.30533 2.37495C4.48533 2.19495 5.42033 2.37495 6.67033 3.32495C6.45844 3.42058 6.23192 3.47975 6.00033 3.49995V4.49995C6.53144 4.4694 7.04674 4.30794 7.50033 4.02995L7.74033 4.25995C7.95033 4.46995 8.14533 4.68495 8.33033 4.89995C8.04412 5.41751 7.93856 6.01569 8.03033 6.59995L9.03033 6.40495C9.00086 6.21945 9.00086 6.03046 9.03033 5.84495C9.18293 6.07636 9.31829 6.31868 9.43533 6.56995C9.71533 7.22995 9.69533 7.59995 9.60533 7.68495Z" fill="#8FFA58"/>
</svg>
