<svg width="12" height="12" viewBox="0 0 12 12" fill="none" xmlns="http://www.w3.org/2000/svg">
<path d="M9.00033 4.15501C8.82033 3.95001 8.63533 3.74501 8.44033 3.55001L8.29533 3.41501L8.36533 3.35501C8.60984 3.14512 8.78409 2.86527 8.86456 2.55323C8.94503 2.24119 8.92784 1.91198 8.81533 1.61001C8.65228 1.2695 8.39412 0.983479 8.07204 0.786504C7.74996 0.589529 7.37773 0.490025 7.00033 0.500013V1.50001C7.17823 1.49754 7.35356 1.54257 7.50825 1.63046C7.66294 1.71835 7.79139 1.84592 7.88033 2.00001C7.96533 2.20001 7.88033 2.42001 7.64533 2.65501C7.61033 2.69501 7.57033 2.72001 7.53533 2.75501C6.03533 1.55001 4.39033 0.870013 3.58533 1.67501C3.501 1.76121 3.43171 1.86092 3.38033 1.97001V2.02001L3.29033 2.28501L1.08533 8.83501C1.00192 9.08184 0.978525 9.34499 1.01707 9.60267C1.05562 9.86034 1.15501 10.1051 1.307 10.3167C1.45899 10.5283 1.65921 10.7007 1.89108 10.8195C2.12295 10.9383 2.37979 11.0002 2.64033 11C2.81044 10.9984 2.97922 10.9697 3.14033 10.915L10.0003 8.64001C10.0846 8.60863 10.1589 8.55508 10.2153 8.48501L10.3203 8.39501C11.0353 7.67501 10.5753 6.29001 9.61533 4.94501C10.1854 4.61234 10.8417 4.45739 11.5003 4.50001V3.50001C10.619 3.45152 9.74465 3.6806 9.00033 4.15501ZM2.85033 9.96501C2.73683 10.0026 2.61513 10.0079 2.4988 9.98027C2.38248 9.95268 2.27611 9.8933 2.19158 9.80877C2.10704 9.72423 2.04766 9.61786 2.02007 9.50154C1.99248 9.38521 1.99776 9.26351 2.03533 9.15001L2.71533 7.10001C3.20062 8.02546 3.94631 8.78853 4.86033 9.29501L2.85033 9.96501ZM6.35033 8.80001C5.59469 8.5999 4.90537 8.20362 4.35219 7.65132C3.79902 7.09902 3.40164 6.41033 3.20033 5.65501L3.70033 4.15501L3.73033 4.20001C3.78533 4.31001 3.85533 4.42501 3.92533 4.54001C3.99533 4.65501 4.00533 4.68501 4.05533 4.76001C4.10533 4.83501 4.22033 5.00001 4.31033 5.12501C4.40033 5.25001 4.40533 5.26501 4.46033 5.33501C4.51533 5.40501 4.67533 5.61001 4.79033 5.74501L4.93533 5.92001C5.10533 6.11501 5.28533 6.30501 5.47533 6.50001C5.66533 6.69501 5.81533 6.82001 5.97533 7.00001L6.14033 7.14001L6.53033 7.45501L6.71533 7.59501C6.85533 7.69501 6.99033 7.79501 7.13033 7.88501L7.28533 7.98501C7.46533 8.09501 7.64533 8.20001 7.82033 8.29001H7.84533L6.35033 8.80001ZM9.60533 7.68501H9.57533C9.23033 7.87501 7.79533 7.40001 6.18033 5.78001C6.01033 5.61001 5.85033 5.44501 5.70533 5.28001L5.56033 5.10501L5.29533 4.78501L5.15033 4.58501C5.08533 4.49001 5.01533 4.40001 4.95533 4.31001L4.82533 4.10001L4.68033 3.86501C4.64033 3.79501 4.61033 3.73001 4.57533 3.66501C4.54033 3.60001 4.50033 3.53501 4.47033 3.46501C4.44351 3.40643 4.42014 3.34632 4.40033 3.28501C4.37533 3.22001 4.34533 3.15501 4.32533 3.09501C4.30533 3.03501 4.30033 3.00001 4.28533 2.94001C4.27033 2.88001 4.26033 2.83001 4.25033 2.78001C4.24783 2.73672 4.24783 2.69331 4.25033 2.65001C4.24551 2.61016 4.24551 2.56987 4.25033 2.53001L4.30533 2.37501C4.48533 2.19501 5.42033 2.37501 6.67033 3.32501C6.45844 3.42064 6.23192 3.47981 6.00033 3.50001V4.50001C6.53144 4.46946 7.04674 4.308 7.50033 4.03001L7.74033 4.26001C7.95033 4.47001 8.14533 4.68501 8.33033 4.90001C8.04412 5.41757 7.93856 6.01575 8.03033 6.60001L9.03033 6.40501C9.00086 6.21951 9.00086 6.03052 9.03033 5.84501C9.18293 6.07642 9.31829 6.31874 9.43533 6.57001C9.71533 7.23001 9.69533 7.60001 9.60533 7.68501Z" fill="#1A1A1A"/>
</svg>
