<svg width="48" height="48" viewBox="0 0 48 48" fill="none" xmlns="http://www.w3.org/2000/svg" xmlns:xlink="http://www.w3.org/1999/xlink">
<path d="M18.844,28.66C18.844,27.831 18.172,27.16 17.344,27.16C16.515,27.16 15.844,27.831 15.844,28.66L18.844,28.66ZM28.044,25.4L28.545,23.986L28.536,23.983L28.044,25.4ZM19.984,22.6L19.483,24.014L19.492,24.017L19.984,22.6ZM29.184,19.34C29.184,20.168 29.855,20.84 30.684,20.84C31.512,20.84 32.184,20.168 32.184,19.34L29.184,19.34ZM15.844,28.66C15.844,31.999 18.427,34.82 21.784,34.82L21.784,31.82C20.22,31.82 18.844,30.481 18.844,28.66L15.844,28.66ZM21.784,34.82L26.804,34.82L26.804,31.82L21.784,31.82L21.784,34.82ZM26.804,34.82C29.835,34.82 32.184,32.263 32.184,29.26L29.184,29.26C29.184,30.736 28.052,31.82 26.804,31.82L26.804,34.82ZM32.184,29.26C32.184,27.825 31.87,26.635 31.137,25.699C30.417,24.781 29.443,24.304 28.545,23.986L27.543,26.814C28.224,27.055 28.57,27.288 28.776,27.55C28.967,27.794 29.184,28.254 29.184,29.26L32.184,29.26ZM28.536,23.983L20.476,21.183L19.492,24.017L27.552,26.817L28.536,23.983ZM20.485,21.186C19.803,20.944 19.457,20.711 19.252,20.449C19.06,20.205 18.844,19.745 18.844,18.74L15.844,18.74C15.844,20.174 16.157,21.364 16.891,22.3C17.61,23.218 18.584,23.695 19.483,24.014L20.485,21.186ZM18.844,18.74C18.844,17.263 19.975,16.18 21.224,16.18L21.224,13.18C18.192,13.18 15.844,15.736 15.844,18.74L18.844,18.74ZM21.224,16.18L26.244,16.18L26.244,13.18L21.224,13.18L21.224,16.18ZM26.244,16.18C27.807,16.18 29.184,17.519 29.184,19.34L32.184,19.34C32.184,16.001 29.6,13.18 26.244,13.18L26.244,16.18Z" fill="#8FFA58"/>
<line x1="22.5" y1="12" x2="22.5" y2="36" stroke="#8FFA58" stroke-width="1.5" stroke-miterlimit="3.999327" stroke-linecap="round" stroke-linejoin="round"/>
<path d="M42.5,24C42.5,34.217 34.217,42.5 24,42.5L24,45.5C35.874,45.5 45.5,35.874 45.5,24L42.5,24ZM24,42.5C13.783,42.5 5.5,34.217 5.5,24L2.5,24C2.5,35.874 12.126,45.5 24,45.5L24,42.5ZM5.5,24C5.5,13.783 13.783,5.5 24,5.5L24,2.5C12.126,2.5 2.5,12.126 2.5,24L5.5,24ZM24,5.5C34.217,5.5 42.5,13.783 42.5,24L45.5,24C45.5,12.126 35.874,2.5 24,2.5L24,5.5Z" fill="#8FFA58"/>
</svg>
