<svg width="40" height="40" viewBox="0 0 40 40" fill="none" xmlns="http://www.w3.org/2000/svg">
<path d="M15.4699 25.2799C15.2799 25.2799 15.0899 25.2099 14.9399 25.0599C14.1199 24.2399 13.6699 23.1499 13.6699 21.9999C13.6699 19.6099 15.6099 17.6699 17.9999 17.6699C19.1499 17.6699 20.2399 18.1199 21.0599 18.9399C21.1999 19.0799 21.2799 19.2699 21.2799 19.4699C21.2799 19.6699 21.1999 19.8599 21.0599 19.9999L15.9999 25.0599C15.8499 25.2099 15.6599 25.2799 15.4699 25.2799ZM17.9999 19.1699C16.4399 19.1699 15.1699 20.4399 15.1699 21.9999C15.1699 22.4999 15.2999 22.9799 15.5399 23.3999L19.3999 19.5399C18.9799 19.2999 18.4999 19.1699 17.9999 19.1699Z" fill="#8FFA58"/>
<path d="M11.5998 28.51C11.4298 28.51 11.2498 28.45 11.1098 28.33C10.0398 27.42 9.07984 26.3 8.25984 25C7.19984 23.35 7.19984 20.66 8.25984 18.9999C10.6998 15.1799 14.2498 12.9799 17.9998 12.9799C20.1998 12.9799 22.3698 13.7399 24.2698 15.1699C24.5998 15.4199 24.6698 15.8899 24.4198 16.2199C24.1698 16.5499 23.6998 16.6199 23.3698 16.3699C21.7298 15.1299 19.8698 14.4799 17.9998 14.4799C14.7698 14.4799 11.6798 16.4199 9.51984 19.8099C8.76984 20.9799 8.76984 23.0199 9.51984 24.1899C10.2698 25.3599 11.1298 26.3699 12.0798 27.1899C12.3898 27.4599 12.4298 27.9299 12.1598 28.2499C12.0198 28.42 11.8098 28.51 11.5998 28.51Z" fill="#8FFA58"/>
<path d="M18.0006 31.02C16.6706 31.02 15.3706 30.75 14.1206 30.22C13.7406 30.06 13.5606 29.62 13.7206 29.24C13.8806 28.86 14.3206 28.68 14.7006 28.84C15.7606 29.29 16.8706 29.52 17.9906 29.52C21.2206 29.52 24.3106 27.58 26.4706 24.19C27.2206 23.02 27.2206 20.98 26.4706 19.81C26.1606 19.32 25.8205 18.85 25.4606 18.41C25.2006 18.09 25.2506 17.62 25.5706 17.35C25.8906 17.09 26.3605 17.13 26.6306 17.46C27.0206 17.94 27.4006 18.46 27.7406 19C28.8006 20.65 28.8006 23.34 27.7406 25C25.3006 28.82 21.7506 31.02 18.0006 31.02Z" fill="#8FFA58"/>
<path d="M18.6896 26.2701C18.3396 26.2701 18.0196 26.0201 17.9496 25.6601C17.8696 25.2501 18.1396 24.8601 18.5496 24.7901C19.6496 24.5901 20.5696 23.6701 20.7696 22.5701C20.8496 22.1601 21.2396 21.9001 21.6496 21.9701C22.0596 22.0501 22.3296 22.4401 22.2496 22.8501C21.9296 24.5801 20.5496 25.9501 18.8296 26.2701C18.7796 26.2601 18.7396 26.2701 18.6896 26.2701Z" fill="#8FFA58"/>
<path d="M7.99945 32.75C7.80945 32.75 7.61945 32.68 7.46945 32.53C7.17945 32.24 7.17945 31.76 7.46945 31.47L14.9395 24C15.2295 23.71 15.7095 23.71 15.9995 24C16.2895 24.29 16.2895 24.77 15.9995 25.06L8.52945 32.53C8.37945 32.68 8.18945 32.75 7.99945 32.75Z" fill="#8FFA58"/>
<path d="M20.5307 20.2199C20.3407 20.2199 20.1507 20.1499 20.0007 19.9999C19.7107 19.7099 19.7107 19.2299 20.0007 18.9399L27.4707 11.4699C27.7607 11.1799 28.2407 11.1799 28.5307 11.4699C28.8207 11.7599 28.8207 12.2399 28.5307 12.5299L21.0607 19.9999C20.9107 20.1499 20.7207 20.2199 20.5307 20.2199Z" fill="#8FFA58"/>
</svg>
