<svg width="20" height="21" viewBox="0 0 20 21" fill="none" xmlns="http://www.w3.org/2000/svg">
<path d="M4.09091 10.4858C4.09091 9.83723 4.19864 9.21538 4.39091 8.63212L1.02545 6.06213C0.369545 7.39388 0 8.89447 0 10.4858C0 12.0759 0.369091 13.5756 1.02409 14.9064L4.38773 12.3314C4.19727 11.7509 4.09091 11.1313 4.09091 10.4858Z" fill="#FBBC05"/>
<path d="M9.99994 4.58511C11.409 4.58511 12.6818 5.0844 13.6818 5.90142L16.5908 2.99645C14.8181 1.45319 12.5454 0.5 9.99994 0.5C6.04812 0.5 2.65175 2.75997 1.02539 6.0621L4.39085 8.63208C5.1663 6.27816 7.37675 4.58511 9.99994 4.58511Z" fill="#EB4335"/>
<path d="M9.99994 16.3866C7.37675 16.3866 5.1663 14.6935 4.39085 12.3396L1.02539 14.9091C2.65175 18.2117 6.04812 20.4717 9.99994 20.4717C12.439 20.4717 14.7677 19.6056 16.5154 17.9829L13.3208 15.5133C12.4195 16.0811 11.2845 16.3866 9.99994 16.3866Z" fill="#34A853"/>
<path d="M19.5455 10.4858C19.5455 9.8957 19.4545 9.26024 19.3182 8.67017H10V12.5283H15.3636C15.0955 13.8437 14.3655 14.855 13.3209 15.5132L16.5155 17.9828C18.3514 16.2789 19.5455 13.7407 19.5455 10.4858Z" fill="#4285F4"/>
</svg>
