<svg width="40" height="40" viewBox="0 0 40 40" fill="none" xmlns="http://www.w3.org/2000/svg">
<path fill-rule="evenodd" clip-rule="evenodd" d="M29.8701 19.5C29.2301 18.39 25.7101 12.82 19.7301 13C14.2001 13.14 11.0001 18 10.1301 19.5C9.95144 19.8094 9.95144 20.1906 10.1301 20.5C10.7601 21.59 14.1301 27 20.0201 27H20.2701C25.8001 26.86 29.0101 22 29.8701 20.5C30.0487 20.1906 30.0487 19.8094 29.8701 19.5ZM20.0001 23.5C18.0671 23.5 16.5001 21.933 16.5001 20C16.5001 18.067 18.0671 16.5 20.0001 16.5C21.9331 16.5 23.5001 18.067 23.5001 20C23.5001 21.933 21.9331 23.5 20.0001 23.5ZM20.0001 21.5C20.8285 21.5 21.5001 20.8284 21.5001 20C21.5001 19.1716 20.8285 18.5 20.0001 18.5C19.1716 18.5 18.5001 19.1716 18.5001 20C18.5001 20.8284 19.1716 21.5 20.0001 21.5Z" fill="#8FFA58"/>
</svg>
