<svg width="44" height="44" viewBox="0 0 44 44" fill="none" xmlns="http://www.w3.org/2000/svg" xmlns:xlink="http://www.w3.org/1999/xlink">
<path d="M7.42,34.98C7.42,35.808 8.092,36.48 8.92,36.48C9.749,36.48 10.42,35.808 10.42,34.98L7.42,34.98ZM2,22.44L3.5,22.44C3.5,22.43 3.5,22.42 3.5,22.411L2,22.44ZM33.58,34.98C33.58,35.808 34.252,36.48 35.08,36.48C35.908,36.48 36.58,35.808 36.58,34.98L33.58,34.98ZM10.42,34.98L10.42,29.14L7.42,29.14L7.42,34.98L10.42,34.98ZM10.42,29.14C10.42,27.969 11.326,26.96 12.6,26.96L12.6,23.96C9.554,23.96 7.42,26.431 7.42,29.14L10.42,29.14ZM12.6,26.96C13.771,26.96 14.78,27.866 14.78,29.14L17.78,29.14C17.78,26.094 15.309,23.96 12.6,23.96L12.6,26.96ZM14.78,29.14L14.78,34.76L17.78,34.76L17.78,29.14L14.78,29.14ZM14.78,34.76C14.78,37.832 12.212,40.4 9.14,40.4L9.14,43.4C13.869,43.4 17.78,39.488 17.78,34.76L14.78,34.76ZM9.14,40.4C6.071,40.4 3.5,37.814 3.5,34.76L0.5,34.76C0.5,39.466 4.409,43.4 9.14,43.4L9.14,40.4ZM3.5,34.76L3.5,22.44L0.5,22.44L0.5,34.76L3.5,34.76ZM3.5,22.411C3.296,12.006 11.504,3.6 21.9,3.6L21.9,0.6C9.816,0.6 0.264,10.394 0.5,22.469L3.5,22.411ZM21.9,3.6C32.299,3.6 40.5,12.016 40.5,22.22L43.5,22.22C43.5,10.384 33.981,0.6 21.9,0.6L21.9,3.6ZM40.5,22.22L40.5,34.54L43.5,34.54L43.5,22.22L40.5,22.22ZM40.5,34.54C40.5,37.612 37.932,40.18 34.86,40.18L34.86,43.18C39.588,43.18 43.5,39.268 43.5,34.54L40.5,34.54ZM34.86,40.18C31.788,40.18 29.22,37.612 29.22,34.54L26.22,34.54C26.22,39.268 30.132,43.18 34.86,43.18L34.86,40.18ZM29.22,34.54L29.22,28.92L26.22,28.92L26.22,34.54L29.22,34.54ZM29.22,28.92C29.22,27.749 30.126,26.74 31.4,26.74L31.4,23.74C28.354,23.74 26.22,26.211 26.22,28.92L29.22,28.92ZM31.4,26.74C32.571,26.74 33.58,27.646 33.58,28.92L36.58,28.92C36.58,25.874 34.109,23.74 31.4,23.74L31.4,26.74ZM33.58,28.92L33.58,34.98L36.58,34.98L36.58,28.92L33.58,28.92Z" fill="#8FFA58"/>
</svg>
