<svg width="24" height="24" viewBox="0 0 24 24" fill="none" xmlns="http://www.w3.org/2000/svg">
<rect x="0.5" y="0.5" width="23" height="23" rx="11.5" fill="#1A1A1A"/>
<rect x="0.5" y="0.5" width="23" height="23" rx="11.5" stroke="#8FFA58"/>
<path d="M15.0003 10.155C14.8203 9.94995 14.6353 9.74495 14.4403 9.54995L14.2953 9.41495L14.3653 9.35495C14.6098 9.14506 14.7841 8.86521 14.8646 8.55317C14.945 8.24113 14.9278 7.91192 14.8153 7.60995C14.6523 7.26944 14.3941 6.98342 14.072 6.78644C13.75 6.58947 13.3777 6.48996 13.0003 6.49995V7.49995C13.1782 7.49748 13.3536 7.54251 13.5083 7.6304C13.6629 7.71829 13.7914 7.84586 13.8803 7.99995C13.9653 8.19995 13.8803 8.41995 13.6453 8.65495C13.6103 8.69495 13.5703 8.71995 13.5353 8.75495C12.0353 7.54995 10.3903 6.86995 9.58533 7.67495C9.501 7.76115 9.43171 7.86086 9.38033 7.96995V8.01995L9.29033 8.28495L7.08533 14.835C7.00192 15.0818 6.97853 15.3449 7.01707 15.6026C7.05562 15.8603 7.15501 16.1051 7.307 16.3167C7.45899 16.5283 7.65921 16.7006 7.89108 16.8195C8.12295 16.9383 8.37979 17.0002 8.64033 17C8.81044 16.9983 8.97922 16.9696 9.14033 16.915L16.0003 14.64C16.0846 14.6086 16.1589 14.555 16.2153 14.485L16.3203 14.395C17.0353 13.675 16.5753 12.29 15.6153 10.945C16.1854 10.6123 16.8417 10.4573 17.5003 10.5V9.49995C16.619 9.45146 15.7447 9.68054 15.0003 10.155ZM8.85033 15.965C8.73683 16.0025 8.61513 16.0078 8.4988 15.9802C8.38248 15.9526 8.27611 15.8932 8.19158 15.8087C8.10704 15.7242 8.04766 15.6178 8.02007 15.5015C7.99248 15.3852 7.99776 15.2634 8.03533 15.15L8.71533 13.1C9.20062 14.0254 9.94631 14.7885 10.8603 15.295L8.85033 15.965ZM12.3503 14.8C11.5947 14.5998 10.9054 14.2036 10.3522 13.6513C9.79902 13.099 9.40164 12.4103 9.20033 11.655L9.70033 10.155L9.73033 10.2C9.78533 10.31 9.85533 10.425 9.92533 10.54C9.99533 10.655 10.0053 10.685 10.0553 10.76C10.1053 10.835 10.2203 11 10.3103 11.125C10.4003 11.25 10.4053 11.265 10.4603 11.335C10.5153 11.405 10.6753 11.61 10.7903 11.745L10.9353 11.92C11.1053 12.115 11.2853 12.305 11.4753 12.5C11.6653 12.695 11.8153 12.82 11.9753 13L12.1403 13.14L12.5303 13.455L12.7153 13.595C12.8553 13.695 12.9903 13.795 13.1303 13.885L13.2853 13.985C13.4653 14.095 13.6453 14.2 13.8203 14.29H13.8453L12.3503 14.8ZM15.6053 13.685H15.5753C15.2303 13.875 13.7953 13.4 12.1803 11.78C12.0103 11.61 11.8503 11.445 11.7053 11.28L11.5603 11.105L11.2953 10.785L11.1503 10.585C11.0853 10.49 11.0153 10.4 10.9553 10.31L10.8253 10.1L10.6803 9.86495C10.6403 9.79495 10.6103 9.72995 10.5753 9.66495C10.5403 9.59995 10.5003 9.53495 10.4703 9.46495C10.4435 9.40637 10.4201 9.34626 10.4003 9.28495C10.3753 9.21995 10.3453 9.15495 10.3253 9.09495C10.3053 9.03495 10.3003 8.99995 10.2853 8.93995C10.2703 8.87995 10.2603 8.82995 10.2503 8.77995C10.2478 8.73665 10.2478 8.69325 10.2503 8.64995C10.2455 8.6101 10.2455 8.56981 10.2503 8.52995L10.3053 8.37495C10.4853 8.19495 11.4203 8.37495 12.6703 9.32495C12.4584 9.42058 12.2319 9.47975 12.0003 9.49995V10.5C12.5314 10.4694 13.0467 10.3079 13.5003 10.03L13.7403 10.26C13.9503 10.47 14.1453 10.685 14.3303 10.9C14.0441 11.4175 13.9386 12.0157 14.0303 12.6L15.0303 12.405C15.0009 12.2194 15.0009 12.0305 15.0303 11.845C15.1829 12.0764 15.3183 12.3187 15.4353 12.57C15.7153 13.23 15.6953 13.6 15.6053 13.685Z" fill="#8FFA58"/>
</svg>
